<svg id="Capa_1" data-name="Capa 1" xmlns="http://www.w3.org/2000/svg" viewBox="0 0 4.4153 5.28607"><path d="M957.9081,539.67169c-.04933,0-.09673.00044-.14411-.00009a.16557.16557,0,0,1-.17823-.17556q-.00225-.273-.0001-.546a.16794.16794,0,0,1,.18238-.17736q.51463-.00063,1.02926-.00019h.06143c.00112-.02083.00281-.03779.00283-.05475q.00023-.2203,0-.44061a.17154.17154,0,0,1,.19441-.19411q.74218-.00023,1.48435-.00025a.16894.16894,0,0,1,.18357.1854q.00036.21312,0,.42624v.07887c.09623,0,.18807.00006.2799,0,.2744-.00023.54879-.001.82318-.00051a.16229.16229,0,0,1,.17163.16692q.00293.28492-.00014.5699a.161.161,0,0,1-.16626.16187c-.04148.00087-.083.001-.12448,0-.02436-.00059-.03573.00847-.03378.03354.001.01269-.00014.02553-.00014.0383l0,1.57087c0,.50426.00291,1.00853-.00165,1.51275a.63138.63138,0,0,1-.1808.4316.33661.33661,0,0,1-.25713.10759q-.64869-.0016-1.29737-.002c-.50731.00008-1.01472-.00445-1.52188.00464a.43021.43021,0,0,1-.438-.2879.74043.74043,0,0,1-.06749-.31034c.0033-.316.00122-.63195.00125-.94792q.00007-1.0535.00006-2.107C957.91073,539.70318,957.90928,539.69073,957.9081,539.67169Zm3.5369.00291c-.02218-.001-.03779-.00237-.05341-.00238q-.63667-.00012-1.27335,0-.95757-.00008-1.91516-.00029c-.063,0-.06311,0-.0631.06129q.00016,1.00557.00037,2.01114c0,.34636.00067.69273-.00082,1.03908a.5045.5045,0,0,0,.08786.27835.15645.15645,0,0,0,.14383.07681c.3846-.00181.76922-.00092,1.15383-.00091q.845,0,1.69.00065a.154.154,0,0,0,.14119-.07276.49455.49455,0,0,0,.08929-.27292q-.00117-.73232-.00045-1.46463,0-.78543,0-1.57087Zm.32259-.67344h-.073q-1.515-.00017-3.03-.0003c-.26809,0-.53619.00089-.80427-.0004-.036-.00017-.04754.01059-.04638.04614.00224.06856.00062.13724.00061.20588v.18855h3.95307Zm-1.27414-.68649h-1.39933v.4537h1.39933Z" transform="translate(-957.5847 -538.08281)"/><path d="M959.67485,540.0063h.2235v2.76742h-.2235Z" transform="translate(-957.5847 -538.08281)"/><path d="M960.89019,542.77492h-.221V540.0074h.221Z" transform="translate(-957.5847 -538.08281)"/><path d="M958.90659,542.77491h-.22276v-2.76817h.22276Z" transform="translate(-957.5847 -538.08281)"/></svg>